<?xml version="1.0" encoding="UTF-8"?>
<svg id="Camada_2" data-name="Camada 2" xmlns="http://www.w3.org/2000/svg" xmlns:xlink="http://www.w3.org/1999/xlink" viewBox="0 0 531.75 322.51">
  <defs>
    <style>
      .cls-1 {
        fill: url(#Gradiente_sem_nome_12);
      }
    </style>
    <linearGradient id="Gradiente_sem_nome_12" data-name="Gradiente sem nome 12" x1="0" y1="161.25" x2="531.75" y2="161.25" gradientUnits="userSpaceOnUse">
      <stop offset="0" stop-color="#640eb0"/>
      <stop offset="1" stop-color="#dcf24e"/>
    </linearGradient>
  </defs>
  <g id="Camada_2-2" data-name="Camada 2">
    <path class="cls-1" d="M141.98,55.8c-39.18,6.3-73.21,24.92-97.22,32.24,2.47-12.95,4.95-25.91,7.42-38.86,10.59-5.02,23.57-10.13,38.74-14.09,16.79-4.38,32.02-6.24,44.7-6.87,28.26,10.53,52.43,19.26,71.67,26.1-18.27-1.22-37.99-2.91-65.31,1.48ZM72.83,167.39c16.84,7.59,33.6,5.63,44.57,4.22,10.23-1.31,17.07-3.55,30.42-8.03,42.09-14.12,45.66-15.89,54.5-18.59,35.75-10.91,66.65-9.1,80.27-8.18,28.89,1.94,45.9,3.09,64.43,13.89,9.27,5.4,17.54,12.41,33.8,17.53,3.91,1.23,16,4.78,30.42,4.86,30.96.16,54.6-15.8,64.24-23.23-16.36-5.03-30.44-10.12-41.62-14.49-7.57,3.76-17.69,7.77-30.04,10.14-6.82,1.31-22.65,4.2-41.41.5-26.36-5.2-30.68-17.91-62.51-28.52-14.05-4.68-25.16-6.19-34-7.33-9.05-1.18-43.75-5.08-85.3,6.17-16.06,4.35-33.89,11.16-44.38,15.16-18.23,6.96-20.53,8.78-30.84,11.41-9.58,2.44-25.93,6.43-46.47,3.38-9.53-1.41-17.61-3.99-23.98-6.61-.47,2.46-.94,4.93-1.41,7.39,5.81,2.44,13.54,5.93,22.41,10.62,11.49,6.08,11.18,7.13,16.93,9.72ZM307.87,100.36c-4.98-2.51-11.16-6.36-23.55-12.06-6.1-2.8-23.24-10.68-40.29-15.11-23.63-6.14-42.76-4.53-63.1-2.82-15.24,1.28-42.53,3.58-72.73,16.1-9.06,3.75-17.45,8.04-32.81,12.75-14.04,4.31-26.03,6.55-34.26,7.78-1.28,6.73-2.57,13.46-3.85,20.19,4.05,1.53,9.05,3.01,14.85,3.85,23.85,3.45,40.19-7.03,73.87-18.62,9.69-3.33,24.93-8.52,44.04-12.49,20.56-4.27,55.85-9.24,94.59-2.27,11.44,2.06,22.42,4.12,35.49,10.56,11.41,5.62,14.36,9.63,25.35,14.79,15.7,7.36,29.64,8.54,35.89,9.07,17.89,1.51,34.24-2.32,47.23-7.27-.01,0-.03-.01-.04-.02-19.43-8.49-34.99-14.31-52.95-20.42-24.72,3.96-36.1,1.82-47.7-4.03ZM102.91,15.91c-13.13-4.99-26.93-10.3-41.34-15.91-1.54,8.07-3.08,16.14-4.62,24.2l45.96-8.29ZM337.44,191.3c-23.43-1.31-44.81,2.13-53.81,3.69-4.95.86-13.42,2.34-24.23,5.21-36.9,9.78-44.95,20.78-70.8,25.71-21.23,4.05-38.6.98-43.26.07-28.9-5.65-32.26-18.73-68.32-27.88-13.76-3.49-26.61-4.97-39.26-4.79-5.11.08-9.6.41-13.25.81-1.61,8.44-3.22,16.89-4.84,25.33,13.07-1.46,24.3-1.75,33.02-1.64,10.11.13,22.44.34,38.02,3.38,3.96.77,14.95,3.05,28.73,8.17,29.78,11.05,30.75,19.78,51.26,24.22,11.26,2.44,20.08,1.72,37.74.28,3.34-.27,6.57-.61,9.68-.99,12.1-4.8,21.26-8.64,28.22-11.41,26.08-10.38,65.2-23.21,119.49-31.82,8.05-2.52,16.1-5.04,24.15-7.56-22.33-7.9-40.84-10.12-52.54-10.78ZM488,153.56c-7.53,9.99-19.54,22.2-36.65,28.19-5.71,2-10.78,2.88-19.43,4.39-20.03,3.5-27.48,1.65-31.26.38-4.78-1.61-7.88-3.72-10.14-5.2,0,0-18.37-12.02-45.19-22.42-12.16-4.72-26.14-5.46-54.09-6.95-21.06-1.12-33.36-1.78-50.27.83-15.89,2.45-27.25,6.47-43.09,12.06-14.24,5.03-24.78,10.09-24.78,10.09-9.12,3.98-10.92,5.08-16.06,6.8-10.78,3.63-19.62,4.45-25.07,4.93-7.8.68-19.35,1.6-33.31-1.76-8.06-1.94-13.77-4.53-18.56-6.75-19.47-8.99-24.76-17.67-39.61-19.66-3.59-.48-6.73-.44-9.14-.25-1.17,6.12-2.34,12.25-3.51,18.37,6.56.97,12.27,2.09,16.96,3.14,2,.45,7.77,1.77,15.21,3.94,0,0,8.76,2.56,17.01,5.63,18.31,6.81,26.25,14.04,38.19,18.87,14.33,5.8,26.71,5.03,41.92,4.09,32.17-1.99,40.32-13.45,80.87-24.15,5.63-1.49,26.08-6.71,53.23-8.95,24.11-1.99,51.71-4,83.36,6.76,11.32,3.85,20.55,8.44,27.38,12.34,14.21-4.45,28.43-8.9,42.64-13.35,29.04-6.93,58.08-13.87,87.12-20.8-10.44-2.11-25.62-5.48-43.75-10.61ZM38.89,264c9.01-1.39,30.47-4.63,55.2-4.22,17.03.28,42.83,2.43,73.99,11.71,3.21-1.12,6.38-2.24,9.56-3.37-24-19.19-46.26-26.58-59.05-29.74-24.12-5.95-47.24-4.92-49.85-4.79-4.56.23-8.31.62-38.02,2.82-5.81.43-10.76.79-14.49,1.06-2.05,10.74-4.1,21.47-6.15,32.21,7.7-1.85,17.45-3.91,28.8-5.67ZM88.73,275.82c-34.8,1.97-53.45,7.34-59.84,9.29-9.29,2.84-17.18,5.98-23.43,8.75-1.82,9.55-3.64,19.09-5.47,28.64,54.22-14.88,96.5-27.78,125.79-37.07,9.88-3.13,18.42-5.9,26.27-8.51-25.45-2.29-46.97-2.03-63.33-1.1Z"/>
  </g>
</svg>