<?xml version="1.0" encoding="UTF-8"?>
<svg id="Camada_2" data-name="Camada 2" xmlns="http://www.w3.org/2000/svg" viewBox="0 0 131.15 59.21">
  <defs>
    <style>
      .cls-1 {
        fill: #fff;
      }
    </style>
  </defs>
  <g id="Camada_2-2" data-name="Camada 2">
    <g id="_3EdMFk" data-name="3EdMFk">
      <path class="cls-1" d="M60.81,21.24c-.12-.2-.02-.84.06-1.1.18-.55,1.38-2.84,1.73-3.46,3.81-6.67,15.35-7.53,21.48-3.8,5.79,3.53,5.15,7.54,4.69,13.65-.23,2.99-1.73,9.59.03,12.02.68.94,2.47.77,3.56.65,1.01-.11,1.62-.52,2.52-.82.53-.18,1.6,0,1.83-.77.36-1.19-.58-1.61-.93-2.33-.53-1.09-.99-3.62-1.07-4.86-.77-11.8,9.27-20.77,20.95-18.91.87.14,4.61,1.31,5.32,1.73.54.31.68,1.11,1.45,1.16l.42-.31c.05-.45,0-1.34.53-1.51l7.35-.19c.19.06.28.22.36.38.3.62-.36,4.05-.42,5.05-.48,7.74-.55,15.47-1.69,23.14-1.26,8.45-3.68,14.73-12.43,17.41-6.69,2.05-12.03-.62-18.59.13-1,.11-1.91,1.02-2.79.57-.3-.44.38-3.59.47-4.37.11-.94-.06-3.73.75-4.07,1.78-.18,3.49-.73,5.29-.66,4.83.2,8.21,2.14,13.34.02,2.73-1.13,4.39-4.6,4.53-7.42-.25-.26-2.35,1.05-2.78,1.2-3.42,1.25-8,1.05-11.45-.04-.8-.25-1.74-1.04-2.52-.98s-2.98,1.64-3.88,2.07c-4.97,2.34-12,3.57-15.77-1.35-.28-.37-.71-1.46-1.12-1.47-.58-.01-1.15.87-1.6,1.19-5.36,3.87-13.58,5.45-19.16,1.11-.4.09-.82.1-1.22.19-5.35,1.29-10.77,3.46-16.44,2-10.6-2.72-7.26-16.98-6.53-24.79.08-.9.82-1.7-.45-2.12-2.02.5-4.1-.13-6.12-.21-9.93-.4-16.64,1.52-18.77,12.19-.14.7-.25,1.52.6,1.55,1.23.04,3.07-.6,4.28-.74,3.95-.46,8.03-.09,12.01-.17l.28.28-.51,6.99c-.45.71-3.87.12-4.73.11-2.74-.03-6.17.02-8.85.43-.49.08-3.86.85-4.03.98-.75.57-.62,4.35-.77,5.53s-.55,2.47-.72,3.73c-.14,1.05.11,5.03-1.21,5.28-1.98.36-4.29.06-6.3.19-.62.04-1.46.75-1.72-.13-.21-.71.59-4.43.7-5.52,1.38-13.15,2-30.05,15.51-36.75,6.02-2.99,11.97-1.74,18.31-1.51,1.29.05,4.26.36,4.69-1.07.64-2.14,1.15-5.31,1.66-7.61.26-1.18-.12-2.91,1.45-3,1.46-.08,3.38.24,4.8.17.61-.03,1.72-.94,1.79.47.1,1.98-1.21,5.9-1.63,8.02-1.47,7.4-4.01,18.13-3.2,25.53.1.95.99,3.04,1.76,3.61,2.85,2.12,8.62.29,11.69-.73l.23-.33c.1-1.5.48-3.12,1.06-4.5,3.43-8.22,13.82-7.02,21.12-7.79,1.57-.16,2.09-.54,1.72-2.27-1.14-5.4-7.81-6.28-11.54-2.91-.6.54-1.19,1.8-2.08,2-1.05.24-5.03.14-6.27.05-.22-.02-.9-.09-.99-.22ZM111.71,18.92c-7.48.82-12.12,11.41-5.4,16.04,8.13,5.61,18.89-3.2,14.78-12-1.59-3.41-5.96-4.41-9.38-4.04ZM79.47,31.32c-2,.06-4.38.15-6.36.33-1.83.17-4.71.5-6.12,1.66-1.63,1.34-1.6,4.07-.1,5.48,2.51,2.36,8.63,1.11,10.86-1.21,1.42-1.48,1.58-2.57,2.03-4.46.15-.61,1.03-1.86-.31-1.81Z"/>
    </g>
  </g>
</svg>