<?xml version="1.0" encoding="UTF-8"?>
<svg id="Camada_2" data-name="Camada 2" xmlns="http://www.w3.org/2000/svg" viewBox="0 0 49.88 49.87">
  <defs>
    <style>
      .cls-1 {
        fill: #fff;
      }
    </style>
  </defs>
  <g id="Camada_2-2" data-name="Camada 2">
    <g>
      <path class="cls-1" d="M21.73.17c20.53-2.33,35.17,19.63,24.65,37.62C35.34,56.68,6.21,52.6.77,31.27-2.89,16.92,6.88,1.86,21.73.17ZM19.15,8.39c-4.58.39-8.36,1.12-10.06,5.93-1.08,3.06-1.01,14.74-.68,18.38.3,3.25,1.8,6.24,4.82,7.72,3.26,1.6,14.79,1.48,18.76,1.12,3.4-.31,6.45-1.31,8.08-4.45,2.22-4.27,1.81-15.84,1.17-20.78-.34-2.63-1.47-4.78-3.78-6.16-3.87-2.32-13.71-2.15-18.31-1.75Z"/>
      <path class="cls-1" d="M18.28,11.42c3.67-.42,13.12-.55,16.4.64,4.97,1.79,4.29,12.31,4,16.74-.3,4.62-.68,9.13-6.26,9.73-3.5.37-11.17.35-14.69,0s-5.88-2.12-6.27-5.83c-.34-3.2-.44-13.35.1-16.33.66-3.62,3.5-4.58,6.73-4.94ZM32.31,17.67c1.77,1.79,4.92-1.22,2.74-2.96-2.08-1.66-4.48,1.2-2.74,2.96ZM23.44,16.58c-7.22,1.1-9.73,10.92-3.75,15.21,3.96,2.84,9.82,2.03,12.44-2.2,3.9-6.29-1.29-14.14-8.69-13.01Z"/>
      <path class="cls-1" d="M23.88,19.61c7.98-1.27,8.69,10.36,1.47,10.89-7.01.52-8.3-9.81-1.47-10.89Z"/>
    </g>
  </g>
</svg>