<?xml version="1.0" encoding="UTF-8"?>
<svg id="Camada_2" data-name="Camada 2" xmlns="http://www.w3.org/2000/svg" viewBox="0 0 24.03 24.04">
  <defs>
    <style>
      .cls-1 {
        fill: #fff;
      }
    </style>
  </defs>
  <g id="Camada_2-2" data-name="Camada 2">
    <g id="_7oJMzJ" data-name="7oJMzJ">
      <path class="cls-1" d="M9.28,14.82c1.2,1.19,3.01,2.48,4.51,3.25,1.17.6,1.39.28,2.2-.63.49-.55,1.47-2.12,2.25-2.13.53,0,1.53.82,2.04,1.11.97.56,2.06,1.06,3.01,1.64.58.35.76.44.73,1.19-.06,1.43-.57,2.57-1.73,3.4-3.29,2.36-6.15,1.31-9.53-.14-4.09-1.75-9.18-6.73-11.04-10.77C.12,8.28-1.11,4.77,1.57,1.45,2.32.51,3.52.08,4.71,0c.78-.05.87.12,1.25.73.58.95,1.08,2.03,1.64,3.01.32.55,1.19,1.58,1.1,2.17-.11.78-2.27,2.11-2.84,2.84-.44.57-.2.92.09,1.48.78,1.52,2.1,3.38,3.32,4.58Z"/>
    </g>
  </g>
</svg>