<?xml version="1.0" encoding="UTF-8"?>
<svg id="Camada_2" data-name="Camada 2" xmlns="http://www.w3.org/2000/svg" viewBox="0 0 24.03 18.06">
  <defs>
    <style>
      .cls-1 {
        fill: #fff;
      }
    </style>
  </defs>
  <g id="Camada_2-2" data-name="Camada 2">
    <g id="bp9I9l">
      <g>
        <path class="cls-1" d="M0,15.44V2.59c.13-.36.2-.75.4-1.09.03-.06-.02-.12.12-.09l7.42,6.53L.49,16.37c-.1.08-.15,0-.2-.08-.07-.1-.27-.73-.28-.85Z"/>
        <path class="cls-1" d="M24.03,15.44c-.13.24-.13.63-.28.85-.05.08-.1.16-.2.08l-7.45-8.42,7.42-6.53c.14-.03.08.03.12.09.13.22.37.84.4,1.09v12.84Z"/>
        <path class="cls-1" d="M9.09,9.02c.06-.01.36.24.44.3.48.37,1.99,1.94,2.46,1.96.21,0,.41-.13.58-.24.38-.27,2.13-1.99,2.33-2.02l.09.02,7.6,8.5c0,.06-.4.24-.48.28-.87.35-1.83.17-2.72.17-4.98.02-9.94.03-14.92,0-.35,0-.71.09-1.1.08-.61-.02-1.3-.13-1.83-.45l7.57-8.59Z"/>
        <path class="cls-1" d="M22.44.45l-10.45,9.04L1.59.45c-.06-.09.46-.28.55-.31.85-.25,1.5-.1,2.31-.1,4.98-.03,9.94-.02,14.92,0,.87,0,1.98-.19,2.82.21.06.03.29.14.25.2Z"/>
      </g>
    </g>
  </g>
</svg>