<?xml version="1.0" encoding="UTF-8"?>
<svg id="Camada_2" data-name="Camada 2" xmlns="http://www.w3.org/2000/svg" viewBox="0 0 49.16 50">
  <defs>
    <style>
      .cls-1 {
        fill: #fff;
      }
    </style>
  </defs>
  <g id="Camada_2-2" data-name="Camada 2">
    <path class="cls-1" d="M20.42.29c38.05-4.84,37.88,52.6,2.06,49.6C-7.24,47.39-7.05,3.78,20.42.29ZM13.06,11.07c-3.63.8-3.3,6.13.45,6.76,4.83.81,5.64-8.11-.45-6.76ZM38.68,39.09v-14.48c0-.45-1.48-2.83-1.94-3.25-2.63-2.35-8.09-2.4-9.74.86l-.85-.26c.59-2.71-4.15-2.32-5.63-1.24v17.72c1.37,1.3,3.83.4,5.62.65v-10.59c0-2.67,3.9-4.87,5.84-2.81.21.23,1.08,2.6,1.08,2.81v10.59h5.62ZM11.02,39.09l5.86-.4-.22-18.43c-.57-.4-5.03-.51-5.65.46v18.37Z"/>
  </g>
</svg>